<svg id="Capa_1" data-name="Capa 1" xmlns="http://www.w3.org/2000/svg" viewBox="0 0 257 257"><defs><style>.cls-1{fill:#fff;stroke:#fff;}.cls-1,.cls-2{stroke-miterlimit:10;}.cls-2{fill:none;stroke:#000;stroke-width:2px;}</style></defs><title>mico12</title><rect class="cls-1" x="0.5" y="0.5" width="128" height="128"/><path class="cls-2" d="M90.41,148.75c-5.7-8.87-13.6-48.83,12.18-66.31,11.6-7.87,27.29-9.34,40.6-4.06,18.09,7.17,27.28,25,28.42,40.59.79,10.69-2.31,24.06-9.47,32.48-1.36,1.6-3.58,3.87-6.77,8.12-6.05,8.1-7.15,12.12-9.47,14.89-6.92,8.25-23.39,9.8-33.83,2.71a24.8,24.8,0,0,1-8.12-9.48c-1.74-2.22-3.42-5.11-6.77-9.47-1.33-1.73-2.65-3.33-4.06-5.41S90.6,149,90.41,148.75Z" transform="translate(1 1)"/><path class="cls-2" d="M121.73,120.47c-.36-.56-2.94-4.49-7.49-4.83a7.93,7.93,0,0,0-5.79,1.69,4.93,4.93,0,0,0-1.94,3.14c-.21,2.51,2.53,4.88,4.83,5.55C114.75,127,119.05,124.85,121.73,120.47Z" transform="translate(1 1)"/><path class="cls-2" d="M132.58,120.47c.35-.56,2.94-4.49,7.48-4.83a8,8,0,0,1,5.8,1.69,4.93,4.93,0,0,1,1.93,3.14c.21,2.51-2.53,4.88-4.83,5.55C139.56,127,135.25,124.85,132.58,120.47Z" transform="translate(1 1)"/><path class="cls-2" d="M125.11,149c-3.47-1.11-5.58-3.37-5.4-5.4.07-.83.54-1.92,1.29-2.09,1.41-.3,3.75,2.72,4.11,5.8A8.56,8.56,0,0,1,125.11,149Z" transform="translate(1 1)"/><path class="cls-2" d="M129.4,149c3.47-1.11,5.57-3.37,5.4-5.4-.07-.83-.54-1.92-1.29-2.09-1.42-.3-3.75,2.72-4.11,5.8A7.85,7.85,0,0,0,129.4,149Z" transform="translate(1 1)"/><path class="cls-2" d="M115.93,156.44" transform="translate(1 1)"/><path class="cls-2" d="M129.8,158.61" transform="translate(1 1)"/><path class="cls-2" d="M136,156.44" transform="translate(1 1)"/><path class="cls-2" d="M140.45,156.4c0,3.06-5.92,5.52-13.19,5.47s-13.14-2.56-13.12-5.62" transform="translate(1 1)"/><path class="cls-2" d="M140.44,156.56c0,3.07-5.91,3.67-13.18,3.62s-13.16-.79-13.14-3.86" transform="translate(1 1)"/><path class="cls-2" d="M118.47,133.87a23.88,23.88,0,0,0-10.14,11.35c-2.62,6.15-2.34,7.55-1.94,9.65" transform="translate(1 1)"/><path class="cls-2" d="M136.55,133.87a23.94,23.94,0,0,1,10.15,11.35c2.61,6.15,2.33,7.55,1.93,9.65" transform="translate(1 1)"/><path class="cls-2" d="M87.42,140.05c-2.44-.88-14-5.34-17-15.91-1.25-4.47-1.49-12,2.12-13.79,3.13-1.6,7.89,1.69,10.07,3.71a16.36,16.36,0,0,1,2.08,2.36" transform="translate(1 1)"/><path class="cls-2" d="M102.56,140.19l-1-.74a24.78,24.78,0,0,1-8.75-12.08,22.42,22.42,0,0,1-1.14-6,18.58,18.58,0,0,1,8.06-16.65,22.7,22.7,0,0,1,9.59-3.92,23.2,23.2,0,0,1,14,2,24.92,24.92,0,0,1,3.93,2.38l.16.11.14-.16.14.16.17-.12a24.19,24.19,0,0,1,8.39-4,23.39,23.39,0,0,1,4.32-.67A22.84,22.84,0,0,1,152.3,103a20.18,20.18,0,0,1,8.15,7.26A17.71,17.71,0,0,1,163,117.1a19.09,19.09,0,0,1,.25,3.2,22.66,22.66,0,0,1-1.1,6.88,24.76,24.76,0,0,1-5.67,9.48,25.32,25.32,0,0,1-4,3.42l-.15.1c0,.06-.19.24-.16.31.33-.65.06-.09,0-.08,0,.47-.06.94-.14,1.39-.22,1.35-.41,2.71-.7,4a52.83,52.83,0,0,1-3.92,11.49,39.34,39.34,0,0,1-6.54,9.89,25.43,25.43,0,0,1-4.32,3.84,12.94,12.94,0,0,1-4.79,2.17,19.24,19.24,0,0,1-2.51.26c-1.06,0-2.11.06-3.16,0a14.59,14.59,0,0,1-7.39-2.16,20.86,20.86,0,0,1-2.47-1.94,34.28,34.28,0,0,1-7.2-9,52.18,52.18,0,0,1-5.23-13.3,45.09,45.09,0,0,1-1-5c-.07-.55-.41-1.66-.46-2.24" transform="translate(1 1)"/><path class="cls-2" d="M168.58,139.09c2.44-.88,14-5.35,17-15.91,1.25-4.48,1.49-12-2.12-13.79-3.13-1.6-7.89,1.68-10.07,3.71a15.36,15.36,0,0,0-2.08,2.36" transform="translate(1 1)"/></svg>